{
  "accessors": [
    {
      "bufferView": 2,
      "componentType": 5126,
      "count": 1778,
      "max": [
        50.399375915527344,
        15.826371192932129,
        260.3822937011719
      ],
      "min": [
        -50.402061462402344,
        -16.84540367126465,
        -0.5848050117492676
      ],
      "type": "VEC3"
    },
    {
      "bufferView": 2,
      "byteOffset": 21336,
      "componentType": 5126,
      "count": 1778,
      "max": [
        0.9999926686286926,
        1.0,
        0.9993333220481873
      ],
      "min": [
        -0.9999925494194031,
        -1.0,
        -0.9993332624435425
      ],
      "type": "VEC3"
    },
    {
      "bufferView": 1,
      "componentType": 5126,
      "count": 1778,
      "max": [
        0.9874758124351501,
        0.986115038394928
      ],
      "min": [
        0.012524232268333435,
        0.012524205259978771
      ],
      "type": "VEC2"
    },
    {
      "bufferView": 0,
      "componentType": 5125,
      "count": 5760,
      "type": "SCALAR"
    }
  ],
  "asset": {
    "extras": {
      "author": "lemateis (https://sketchfab.com/lemateis)",
      "license": "SKETCHFAB Standard (https://sketchfab.com/licenses)",
      "source": "https://sketchfab.com/3d-models/old-feature-phone-12a416afc1af460aa8f38fb6aed43831",
      "title": "Old feature phone"
    },
    "generator": "Sketchfab-16.60.0",
    "version": "2.0"
  },
  "bufferViews": [
    {
      "buffer": 0,
      "byteLength": 23040,
      "name": "floatBufferViews",
      "target": 34963
    },
    {
      "buffer": 0,
      "byteLength": 14224,
      "byteOffset": 23040,
      "byteStride": 8,
      "name": "floatBufferViews",
      "target": 34962
    },
    {
      "buffer": 0,
      "byteLength": 42672,
      "byteOffset": 37264,
      "byteStride": 12,
      "name": "floatBufferViews",
      "target": 34962
    }
  ],
  "buffers": [
    {
      "byteLength": 79936,
      "uri": "scene.bin"
    }
  ],
  "images": [
    {
      "uri": "textures/Scene_-_Root_baseColor.png"
    },
    {
      "uri": "textures/Scene_-_Root_metallicRoughness.png"
    }
  ],
  "materials": [
    {
      "doubleSided": true,
      "name": "Scene_-_Root",
      "pbrMetallicRoughness": {
        "baseColorTexture": {
          "index": 0
        },
        "metallicRoughnessTexture": {
          "index": 1
        }
      }
    }
  ],
  "meshes": [
    {
      "name": "Cube__0",
      "primitives": [
        {
          "attributes": {
            "NORMAL": 1,
            "POSITION": 0,
            "TEXCOORD_0": 2
          },
          "indices": 3,
          "material": 0,
          "mode": 4
        }
      ]
    }
  ],
  "nodes": [
    {
      "children": [
        1
      ],
      "matrix": [
        -1.0,
        -1.60812262295773e-16,
        2.8327693431939985e-16,
        0.0,
        -2.832769343193999e-16,
        -6.123232939436859e-17,
        -1.0,
        0.0,
        1.6081226229577292e-16,
        -1.0,
        6.123232939436859e-17,
        0.0,
        0.0,
        0.0,
        0.0,
        1.0
      ],
      "name": "Sketchfab_model"
    },
    {
      "children": [
        2
      ],
      "matrix": [
        0.009999999776482582,
        0.0,
        0.0,
        0.0,
        0.0,
        -0.009999999776482582,
        0.0,
        0.0,
        0.0,
        0.0,
        -0.009999999776482582,
        0.0,
        0.0,
        0.0,
        0.0,
        1.0
      ],
      "name": "1648d45d71584ab49e8d49bd3c9af543.fbx"
    },
    {
      "children": [
        3
      ],
      "name": "RootNode"
    },
    {
      "children": [
        4
      ],
      "name": "Cube"
    },
    {
      "mesh": 0,
      "name": "Cube__0"
    }
  ],
  "samplers": [
    {
      "magFilter": 9729,
      "minFilter": 9987,
      "wrapS": 10497,
      "wrapT": 10497
    }
  ],
  "scene": 0,
  "scenes": [
    {
      "name": "Sketchfab_Scene",
      "nodes": [
        0
      ]
    }
  ],
  "textures": [
    {
      "sampler": 0,
      "source": 0
    },
    {
      "sampler": 0,
      "source": 1
    }
  ]
}
